<svg xmlns="http://www.w3.org/2000/svg" xmlns:xlink="http://www.w3.org/1999/xlink" viewBox="0 0 2732.64 1536.48">
    <defs>
        <style>
            .normal-1 {
                fill: #e68d45;
            }

            .normal-2 {
                fill: #d1742a;
            }

            .normal-3 {
                fill: #6b3b15;
            }

            .normal-4 {
                fill: #9e5217;
            }

            .indisp-1 {
                fill: #b6b1a3;
            }

            .indisp-2 {
                fill: #afaa9b;
            }

            .indisp-3 {
                fill: #939994;
            }

            .selected-1 {
                fill: #35e666;
            }

            .selected-2 {
                fill: #31e161;
            }

            .selected-3 {
                fill: #1cd55c;
            }

            .selected-4 {                
                fill: none;
                stroke: #fff;
                stroke-width: 1px;
                stroke-linecap: round;
            }

            .disp-1 {
                fill: #2fb1d9;
                /* fill: #fcba03; */
            }

            .disp-2 {
                fill: #2bacd4;
                /* fill: #f0b102; */
            }

            .disp-3 {
                fill: #16a0cf;
                /* fill: #e3a805; */
            }

            .cls-5 {
                isolation: isolate;
            }

            .cls-6 {
                mix-blend-mode: multiply;
                opacity: 0.3;
            }

            .cabana-pointer {
                cursor: pointer;
            }
        </style>
        <symbol id="cabana_normal" class="cabana" data-name="Normal" viewBox="0 0 18.37 23.28">
            <rect class="normal-1" width="18.37" height="23.28" />
            <rect class="normal-2" y="11.64" width="18.37" height="11.64" />
            <rect class="normal-3" x="15.24" y="14.24" width="2.22" height="2.22" />
            <path class="normal-4" d="M15.49,14.49h1.72v1.72H15.49V14.49M15,14v2.72h2.72V14Z" />
        </symbol>
        <symbol id="cabana_indisp" class="cabana" data-name="Indisponível" viewBox="0 0 18.37 23.28">
            <rect class="indisp-1" width="18.37" height="23.28" />
            <rect class="indisp-2" y="11.64" width="18.37" height="11.64" />
            <rect class="indisp-3" x="15.24" y="14.24" width="2.22" height="2.22" />
            <path class="indisp-3" d="M15.49,14.49h1.72v1.72H15.49V14.49M15,14v2.72h2.72V14Z" />
        </symbol>
        <symbol id="cabana_selected" class="cabana-pointer" data-name="Selecionada" viewBox="0 0 18.37 23.28">
            <rect class="selected-1" width="18.37" height="23.28" />
            <rect class="selected-2" y="11.64" width="18.37" height="11.64" />
            <rect class="selected-3" x="15.24" y="14.24" width="2.22" height="2.22" />
            <path class="selected-3" d="M15.49,14.49h1.72v1.72H15.49V14.49M15,14v2.72h2.72V14Z" />
            <!-- <path class="selected-4" d="M5.5 10.14l4 5.2 4.5-8.8   " /> -->
        </symbol>
        <symbol id="cabana_disp" class="cabana-pointer" data-name="Disponível" viewBox="0 0 18.37 23.28">
            <rect class="disp-1" width="18.37" height="23.28" />
            <rect class="disp-2" y="11.64" width="18.37" height="11.64" />
            <rect class="disp-3" x="15.24" y="14.24" width="2.22" height="2.22" />
            <path class="disp-3" d="M15.49,14.49h1.72v1.72H15.49V14.49M15,14v2.72h2.72V14Z" />
        </symbol>
    </defs>
    <g class="cls-5">
        <g id="Layer_2" data-name="Layer 2">
            <g id="Layer_1-2" data-name="Layer 1">
                <image id="fundo" width="5693" height="3201" transform="scale(0.48)" xlink:href="./Asset%2021.png" />
                <g id="cabanas">
                    <g class="cls-6">
                        <rect x="645.93" y="1227.64" width="23.46" height="29.74"
                            transform="translate(-738.78 1404.7) rotate(-68.73)" />
                        <rect x="652.86" y="1237.77" width="23.46" height="14.87"
                            transform="translate(-736.88 1412.87) rotate(-68.73)" />
                        <rect x="1870.65" y="1003.87" width="29.74" height="23.46"
                            transform="translate(8.89 2047.53) rotate(-57.11)" />
                        <rect x="1882.12" y="997.63" width="14.87" height="23.46"
                            transform="translate(15.98 2048.07) rotate(-57.11)" />
                        <rect x="2095.82" y="434.54" width="23.46" height="29.74"
                            transform="translate(1037.68 2320) rotate(-72.27)" />
                        <rect x="2102.9" y="444.24" width="23.46" height="14.87"
                            transform="translate(1040.45 2328.32) rotate(-72.27)" />
                        <rect x="337.21" y="1196.89" width="36.73" height="46.56"
                            transform="translate(-641.76 2007.93) rotate(-112.06)" />
                        <rect x="348" y="1204.16" width="36.73" height="23.28"
                            transform="translate(-622.87 2011.91) rotate(-112.06)" />
                        <rect x="354.85" y="1201.87" width="4.44" height="4.44"
                            transform="translate(-426.11 222.27) rotate(-22.06)" />
                        <path
                            d="M358,1201.85l1.29,3.19-3.19,1.3-1.29-3.2,3.19-1.29m.55-1.3-5,2,2,5.05,5.05-2.05-2.05-5Z" />
                        <rect x="1261.45" y="1107.94" width="36.73" height="46.56"
                            transform="translate(-251.21 373.89) rotate(-15.15)" />
                        <rect x="1264.49" y="1130.82" width="36.73" height="23.28"
                            transform="translate(-254.04 375.08) rotate(-15.15)" />
                        <rect x="1293.37" y="1132.42" width="4.44" height="4.44"
                            transform="translate(-251.44 377.89) rotate(-15.14)" />
                        <path
                            d="M1296.81,1132.53l.9,3.32-3.33.9-.9-3.32,3.33-.9m.7-1.23-5.25,1.42,1.42,5.26,5.25-1.43-1.42-5.25Z" />
                        <rect x="1422.57" y="1063.66" width="36.73" height="46.56"
                            transform="translate(-216.54 372.45) rotate(-13.71)" />
                        <rect x="1425.33" y="1086.61" width="36.73" height="23.28"
                            transform="translate(-219.15 373.43) rotate(-13.71)" />
                        <rect x="1454.4" y="1088.53" width="4.44" height="4.44"
                            transform="translate(-216.93 376.11) rotate(-13.7)" />
                        <path
                            d="M1457.88,1088.67l.82,3.35-3.34.82-.82-3.35,3.34-.82m.74-1.2-5.29,1.29,1.29,5.28,5.29-1.29-1.29-5.28Z" />
                        <rect x="1674.47" y="1070.41" width="36.73" height="46.56"
                            transform="translate(-84.43 143.33) rotate(-4.73)" />
                        <rect x="1675.43" y="1093.65" width="36.73" height="23.28"
                            transform="translate(-85.38 143.45) rotate(-4.73)" />
                        <rect x="1705.52" y="1097.68" width="4.44" height="4.44"
                            transform="translate(-84.83 144.47) rotate(-4.73)" />
                        <path
                            d="M1709.31,1098l.29,3.43-3.43.29-.29-3.43,3.43-.29m.92-1.08-5.43.45.45,5.43,5.43-.45-.45-5.43Z" />
                        <rect x="1281.33" y="1341.52" width="36.73" height="46.56"
                            transform="translate(-72.18 72.57) rotate(-3.11)" />
                        <rect x="1280.7" y="1341.54" width="36.73" height="23.28"
                            transform="translate(-71.55 72.52) rotate(-3.11)" />
                        <rect x="1311.39" y="1354.39" width="4.44" height="4.44"
                            transform="translate(-71.7 73.3) rotate(-3.11)" />
                        <path
                            d="M1315.24,1354.8l.19,3.44-3.44.19-.19-3.44,3.44-.19m.94-1-5.43.29.29,5.44,5.44-.3-.3-5.43Z" />
                        <rect x="1398.92" y="1335.57" width="36.73" height="46.56"
                            transform="translate(-235.97 299.65) rotate(-11.15)" />
                        <rect x="1396.67" y="1335.79" width="36.73" height="23.28"
                            transform="translate(-233.81 299) rotate(-11.15)" />
                        <rect x="1427.69" y="1346.58" width="4.44" height="4.44"
                            transform="translate(-233.83 301.96) rotate(-11.15)" />
                        <path
                            d="M1431.27,1346.78l.67,3.37-3.38.67-.67-3.38,3.38-.66m.79-1.18-5.34,1.05,1,5.34,5.34-1-1-5.34Z" />
                        <rect x="1574.92" y="1337.06" width="36.73" height="46.56"
                            transform="translate(61.2 -68.57) rotate(2.51)" />
                        <rect x="1575.43" y="1337.07" width="36.73" height="23.28"
                            transform="translate(60.69 -68.6) rotate(2.51)" />
                        <rect x="1605.71" y="1351.33" width="4.44" height="4.44"
                            transform="translate(185.34 2900.74) rotate(-87.49)" />
                        <path
                            d="M1606.28,1351.76l3.45.15-.16,3.44-3.44-.15.15-3.44m-1-1-.24,5.44,5.44.24.24-5.44-5.44-.24Z" />
                        <rect x="1702.73" y="1336.5" width="36.73" height="46.56"
                            transform="translate(60.12 -72.82) rotate(2.47)" />
                        <rect x="1703.23" y="1336.51" width="36.73" height="23.28"
                            transform="translate(59.62 -72.85) rotate(2.47)" />
                        <rect x="1733.52" y="1350.76" width="4.44" height="4.44"
                            transform="translate(309.24 3028.83) rotate(-87.53)" />
                        <path
                            d="M1734.09,1351.19l3.44.15-.15,3.44-3.44-.15.15-3.44m-.95-1-.24,5.44,5.44.23.23-5.44-5.43-.23Z" />
                        <rect x="1934.19" y="1315.99" width="36.73" height="46.56"
                            transform="translate(-103.8 165.59) rotate(-4.73)" />
                        <rect x="1935.15" y="1339.23" width="36.73" height="23.28"
                            transform="translate(-104.75 165.71) rotate(-4.73)" />
                        <rect x="1965.24" y="1343.26" width="4.44" height="4.44"
                            transform="translate(-104.21 166.75) rotate(-4.73)" />
                        <path
                            d="M1969,1343.62l.29,3.44-3.43.28-.29-3.43,3.43-.29m.92-1.08-5.43.45.45,5.43,5.43-.45-.45-5.43Z" />
                        <rect x="2099.97" y="768.04" width="36.73" height="46.56"
                            transform="translate(3249.71 -1166.62) rotate(99.54)" />
                        <rect x="2088.49" y="777.75" width="36.73" height="23.28"
                            transform="translate(3234.43 -1157.55) rotate(99.54)" />
                        <rect x="2106.42" y="802" width="4.44" height="4.44"
                            transform="translate(966.1 2750.44) rotate(-80.46)" />
                        <path
                            d="M2107.23,802.24l3.4.57-.57,3.4-3.4-.57.57-3.4m-.82-1.15-.9,5.37,5.37.9.9-5.37-5.37-.9Z" />
                        <rect x="2146.04" y="537.22" width="36.73" height="46.56"
                            transform="translate(-15.3 62.82) rotate(-1.66)" />
                        <rect x="2146.37" y="560.49" width="36.73" height="23.28"
                            transform="translate(-15.64 62.83) rotate(-1.66)" />
                        <rect x="2176.73" y="565.28" width="4.44" height="4.44"
                            transform="translate(-15.44 62.97) rotate(-1.65)" />
                        <path
                            d="M2180.62,565.73l.1,3.44-3.44.1-.1-3.44,3.44-.1m1-1-5.44.16.16,5.44,5.44-.16-.16-5.44Z" />
                        <rect x="2450.23" y="496.5" width="36.73" height="46.56"
                            transform="translate(3390.22 -1828.58) rotate(99.54)" />
                        <rect x="2438.75" y="506.21" width="36.73" height="23.28"
                            transform="translate(3374.94 -1819.5) rotate(99.54)" />
                        <rect x="2456.68" y="530.46" width="4.44" height="4.44"
                            transform="translate(1526.69 2869.55) rotate(-80.48)" />
                        <path
                            d="M2457.49,530.7l3.4.57-.57,3.4-3.4-.57.57-3.4m-.82-1.15-.9,5.37,5.37.9.9-5.37-5.37-.9Z" />
                        <rect x="2504" y="347.47" width="36.73" height="46.56"
                            transform="translate(2538.62 -2178.66) rotate(82)" />
                        <rect x="2492.47" y="360.73" width="36.73" height="23.28"
                            transform="translate(2530.3 -2165.85) rotate(82)" />
                        <rect x="2514.79" y="383.76" width="4.44" height="4.44"
                            transform="matrix(0.99, -0.14, 0.14, 0.99, -29.22, 353.9)" />
                        <path
                            d="M2518.48,384l.48,3.41-3.41.48-.48-3.41,3.41-.48m.85-1.13-5.39.75.75,5.4,5.4-.76-.76-5.39Z" />
                        <rect x="2450.23" y="241.92" width="36.73" height="46.56"
                            transform="translate(68.87 -371.66) rotate(8.73)" />
                        <rect x="2448.46" y="265.06" width="36.73" height="23.28"
                            transform="translate(70.59 -371.26) rotate(8.73)" />
                        <rect x="2479.42" y="272.49" width="4.44" height="4.44"
                            transform="translate(1833.22 2685.84) rotate(-81.26)" />
                        <path
                            d="M2480.2,272.75l3.4.52-.52,3.4-3.4-.52.52-3.4m-.84-1.14-.82,5.38,5.38.82.82-5.38-5.38-.82Z" />
                        <rect x="2311.34" y="257.92" width="36.73" height="46.56"
                            transform="translate(73.13 924.99) rotate(-22.81)" />
                        <rect x="2315.85" y="280.29" width="36.73" height="23.28"
                            transform="translate(69.32 927.58) rotate(-22.81)" />
                        <rect x="2343.57" y="280.26" width="4.44" height="4.44"
                            transform="translate(73.84 931.14) rotate(-22.8)" />
                        <path
                            d="M2346.72,280.23l1.33,3.17-3.17,1.34-1.34-3.18,3.18-1.33m.53-1.31-5,2.11,2.11,5,5-2.11-2.11-5Z" />
                        <rect x="2227.53" y="315.22" width="36.73" height="46.56"
                            transform="translate(1503.96 2485.16) rotate(-79.5)" />
                        <rect x="2238.98" y="328.98" width="36.73" height="23.28"
                            transform="translate(1511.23 2498.15) rotate(-79.5)" />
                        <rect x="2253.59" y="323.53" width="4.44" height="4.44"
                            transform="translate(1524.56 2484.47) rotate(-79.5)" />
                        <path
                            d="M2254.43,323.75l3.39.63-.63,3.38-3.39-.62.63-3.39m-.8-1.17-1,5.36,5.35,1,1-5.35-5.35-1Z" />
                        <rect x="2264.93" y="430.47" width="36.73" height="46.56"
                            transform="translate(2615.08 2757.94) rotate(-109.43)" />
                        <rect x="2275.91" y="438.24" width="36.73" height="23.28"
                            transform="translate(2633.36 2763.13) rotate(-109.43)" />
                        <rect x="2283.3" y="435.55" width="4.44" height="4.44"
                            transform="translate(-15.43 785.4) rotate(-19.43)" />
                        <path
                            d="M2286.58,435.57l1.14,3.25-3.25,1.14-1.14-3.24,3.25-1.15m.61-1.28-5.14,1.82,1.81,5.13,5.14-1.81-1.81-5.14Z" />
                        <rect x="2301.2" y="552.29" width="36.73" height="46.56"
                            transform="translate(4357.95 1823.23) rotate(-162.47)" />
                        <rect x="2304.71" y="552.83" width="36.73" height="23.28"
                            transform="translate(4368.14 1802.6) rotate(-162.47)" />
                        <rect x="2305.91" y="561.95" width="4.44" height="4.44"
                            transform="translate(1074.76 2595.07) rotate(-72.46)" />
                        <path
                            d="M2307,562l3.28,1-1,3.28-3.28-1,1-3.29m-.65-1.25-1.64,5.19,5.19,1.64,1.64-5.19-5.19-1.64Z" />
                        <rect x="1794.04" y="376.25" width="36.73" height="46.56"
                            transform="matrix(0.99, 0.11, -0.11, 0.99, 54.81, -196.54)" />
                        <rect x="1792.76" y="399.46" width="36.73" height="23.28"
                            transform="matrix(0.99, 0.11, -0.11, 0.99, 56.07, -196.33)" />
                        <rect x="1823.62" y="406.26" width="4.44" height="4.44"
                            transform="translate(1219.22 2178.38) rotate(-83.69)" />
                        <path
                            d="M1824.32,406.58l3.42.37-.38,3.43-3.42-.38.38-3.42m-.89-1.11-.6,5.41,5.41.6.6-5.41-5.41-.6Z" />
                        <rect x="1690.85" y="347.76" width="36.73" height="46.56"
                            transform="translate(104.9 -325.57) rotate(11.22)" />
                        <rect x="1688.59" y="370.81" width="36.73" height="23.28"
                            transform="translate(107.08 -324.91) rotate(11.22)" />
                        <rect x="1719.62" y="378.88" width="4.44" height="4.44"
                            transform="translate(1012.75 1995.78) rotate(-78.77)" />
                        <path
                            d="M1720.48,379.08l3.38.67-.67,3.38-3.38-.67.67-3.38m-.78-1.17-1.06,5.34,5.34,1.06L1725,379l-5.34-1.06Z" />
                        <rect x="1595.23" y="324.31" width="36.73" height="46.56"
                            transform="translate(98.51 -307.4) rotate(11.22)" />
                        <rect x="1592.96" y="347.37" width="36.73" height="23.28"
                            transform="translate(100.69 -306.75) rotate(11.22)" />
                        <rect x="1623.99" y="355.44" width="4.44" height="4.44"
                            transform="translate(958.73 1883.1) rotate(-78.77)" />
                        <path
                            d="M1624.86,355.64l3.37.67-.67,3.38-3.37-.67.67-3.38m-.79-1.18L1623,359.8l5.34,1.06,1.06-5.34-5.34-1.06Z" />
                        <rect x="1480.25" y="293.8" width="36.73" height="46.56"
                            transform="translate(27.61 -110.16) rotate(4.25)" />
                        <rect x="1479.39" y="317.05" width="36.73" height="23.28"
                            transform="translate(28.47 -110.07) rotate(4.25)" />
                        <rect x="1510.14" y="323.33" width="4.44" height="4.44"
                            transform="translate(1075.71 1809.65) rotate(-85.75)" />
                        <path
                            d="M1510.77,323.7l3.44.26-.26,3.43-3.43-.25.25-3.44m-.92-1.07-.4,5.43,5.43.4.4-5.43-5.43-.4Z" />
                        <rect x="1384.25" y="274.83" width="36.73" height="46.56"
                            transform="translate(-7.25 559.81) rotate(-22.51)" />
                        <rect x="1388.71" y="297.22" width="36.73" height="23.28"
                            transform="translate(-11.02 562.34) rotate(-22.51)" />
                        <rect x="1416.48" y="297.25" width="4.44" height="4.44"
                            transform="translate(-6.53 566.16) rotate(-22.52)" />
                        <path
                            d="M1419.63,297.22l1.32,3.18-3.18,1.32-1.32-3.18,3.18-1.32m.54-1.3-5,2.08,2.08,5,5-2.08-2.09-5Z" />
                        <rect x="1198.2" y="352.51" width="36.73" height="46.56"
                            transform="translate(574.08 1475.09) rotate(-76.86)" />
                        <rect x="1209.54" y="366.79" width="36.73" height="23.28"
                            transform="translate(580.26 1488.17) rotate(-76.86)" />
                        <rect x="1224.83" y="361.29" width="4.44" height="4.44"
                            transform="translate(594.2 1475.86) rotate(-76.86)" />
                        <path
                            d="M1225.77,361.45l3.35.78-.78,3.35-3.35-.78.78-3.35m-.75-1.21-1.23,5.31,5.3,1.23,1.24-5.3-5.31-1.24Z" />
                        <rect x="1262.58" y="472.32" width="36.73" height="46.56"
                            transform="translate(2299.18 1417.36) rotate(-159)" />
                        <rect x="1266.75" y="473.09" width="36.73" height="23.28"
                            transform="translate(2311.14 1397.84) rotate(-159)" />
                        <rect x="1268" y="481.31" width="4.44" height="4.44"
                            transform="translate(363.52 1496.04) rotate(-69)" />
                        <path
                            d="M1269.23,481.31l3.21,1.24-1.23,3.21-3.21-1.23,1.23-3.22m-.58-1.29-2,5.08,5.09,1.95,2-5.08-5.09-2Z" />
                    </g>
                    <rect class="normal-1" x="639.93" y="1223.64" width="23.46" height="29.74"
                        transform="translate(-738.87 1396.56) rotate(-68.73)" />
                    <rect class="normal-2" x="646.86" y="1233.77" width="23.46" height="14.87"
                        transform="translate(-736.97 1404.73) rotate(-68.73)" />
                    <rect class="normal-1" x="1864.65" y="999.87" width="29.74" height="23.46"
                        transform="translate(9.51 2040.66) rotate(-57.11)" />
                    <rect class="normal-2" x="1876.12" y="993.63" width="14.87" height="23.46"
                        transform="translate(16.59 2041.2) rotate(-57.11)" />
                    <rect class="normal-1" x="2089.82" y="430.54" width="23.46" height="29.74"
                        transform="translate(1037.32 2311.5) rotate(-72.27)" />
                    <rect class="normal-2" x="2096.9" y="440.24" width="23.46" height="14.87"
                        transform="translate(1040.09 2319.82) rotate(-72.27)" />
                    <use id="cabana1" data-name="cabana 1" width="18.37" height="23.28"
                        transform="matrix(-0.75, -1.85, 1.85, -0.75, 334.9, 1241.93)" xlink:href="#cabana_normal" />
                    <use id="cabana2" data-name="cabana 2" width="18.37" height="23.28"
                        transform="matrix(1.93, -0.52, 0.52, 1.93, 1250, 1109.55)" xlink:href="#cabana_normal" />
                    <use id="cabana3" data-name="cabana 3" width="18.37" height="23.28"
                        transform="translate(1411.57 1064.68) rotate(-13.71) scale(2)" xlink:href="#cabana_normal" />
                    <use id="cabana4" data-name="cabana 4" width="18.37" height="23.28"
                        transform="translate(1666.61 1068) rotate(-4.73) scale(2)" xlink:href="#cabana_normal" />
                    <use id="cabana5" data-name="cabana 5" width="18.37" height="23.28"
                        transform="matrix(2, -0.11, -0.11, -2, 1276.62, 1385.05)" xlink:href="#cabana_normal" />
                    <use id="cabana6" data-name="cabana 6" width="18.37" height="23.28"
                        transform="matrix(1.96, -0.39, -0.39, -1.96, 1397.76, 1381.24)" xlink:href="#cabana_normal" />
                    <use id="cabana7" data-name="cabana 7" width="18.37" height="23.28"
                        transform="matrix(2, 0.09, 0.09, -2, 1567.91, 1378.79)" xlink:href="#cabana_normal" />
                    <use id="cabana8" data-name="cabana 8" width="18.37" height="23.28"
                        transform="matrix(2, 0.09, 0.09, -2, 1695.74, 1378.25)" xlink:href="#cabana_normal" />
                    <use id="cabana9" data-name="cabana 9" width="18.37" height="23.28"
                        transform="translate(1926.34 1313.58) rotate(-4.73) scale(2)" xlink:href="#cabana_normal" />
                    <use id="cabana10" data-name="cabana 10" width="18.37" height="23.28"
                        transform="matrix(-0.33, 1.97, -1.97, -0.33, 2138.34, 773.06)" xlink:href="#cabana_normal" />
                    <use id="cabana11" data-name="cabana 11" width="18.37" height="23.28"
                        transform="translate(2139.37 533.76) rotate(-1.66) scale(2)" xlink:href="#cabana_normal" />
                    <use id="cabana12" data-name="cabana 12" width="18.37" height="23.28"
                        transform="matrix(-0.33, 1.97, -1.97, -0.33, 2488.6, 501.52)" xlink:href="#cabana_normal" />
                    <use id="cabana13" data-name="cabana 13" width="18.37" height="23.28"
                        transform="translate(2536.86 345.32) rotate(82) scale(2)" xlink:href="#cabana_normal" />
                    <use id="cabana14" data-name="cabana 14" width="18.37" height="23.28"
                        transform="translate(2447.98 235.4) rotate(8.73) scale(2)" xlink:href="#cabana_normal" />
                    <use id="cabana15" data-name="cabana 15" width="18.37" height="23.28"
                        transform="translate(2297.75 262.86) rotate(-22.81) scale(2)" xlink:href="#cabana_normal" />
                    <use id="cabana16" data-name="cabana 16" width="18.37" height="23.28"
                        transform="translate(2213.66 348.32) rotate(-79.51) scale(2)" xlink:href="#cabana_normal" />
                    <use id="cabana17" data-name="cabana 17" width="18.37" height="23.28"
                        transform="translate(2261.45 474.82) rotate(-109.44) scale(2)" xlink:href="#cabana_normal" />
                    <use id="cabana18" data-name="cabana 18" width="18.37" height="23.28"
                        transform="matrix(-1.91, -0.6, 0.6, -1.91, 2324.07, 599.3)" xlink:href="#cabana_normal" />
                    <use id="cabana19" data-name="cabana 19" width="18.37" height="23.28"
                        transform="matrix(1.99, 0.22, -0.22, 1.99, 1790.7, 370.37)" xlink:href="#cabana_normal" />
                    <use id="cabana20" data-name="cabana 20" width="18.37" height="23.28"
                        transform="translate(1689.74 340.63) rotate(11.22) scale(2)" xlink:href="#cabana_normal" />
                    <use id="cabana21" data-name="cabana 21" width="18.37" height="23.28"
                        transform="translate(1594.11 317.19) rotate(11.22) scale(2)" xlink:href="#cabana_normal" />
                    <use id="cabana22" data-name="cabana 22" width="18.37" height="23.28"
                        transform="matrix(1.99, 0.15, -0.15, 1.99, 1476.02, 288.51)" xlink:href="#cabana_normal" />
                    <use id="cabana23" data-name="cabana 23" width="18.37" height="23.28"
                        transform="matrix(1.85, -0.77, 0.77, 1.85, 1370.73, 279.63)" xlink:href="#cabana_normal" />
                    <use id="cabana24" data-name="cabana 24" width="18.37" height="23.28"
                        transform="matrix(0.45, -1.95, 1.95, 0.45, 1183.72, 384.38)" xlink:href="#cabana_normal" />
                    <use id="cabana25" data-name="cabana 25" width="18.37" height="23.28"
                        transform="translate(1283.75 519.92) rotate(-159) scale(2)" xlink:href="#cabana_normal" />
                </g>
            </g>
        </g>
    </g>
</svg>